<svg xmlns="http://www.w3.org/2000/svg" viewBox="0 0 56 56"><defs><style>.cls-1{fill:#46a0a0;}.cls-2{fill:#006478;}.cls-3{fill:#c8c8eb;}.cls-4{fill:#fff;}.cls-5{fill:#919191;}.cls-6{fill:#f5b496;}.cls-7{fill:#b496c8;}.cls-8{fill:#7d7d7d;}</style></defs><title>書類</title><g id="背景"><rect class="cls-1" width="56" height="56" rx="12" ry="12"/></g><g id="アイコン"><path class="cls-2" d="M56,44V24.5l-14-14-28,35L24.5,56H44A12,12,0,0,0,56,44Z"/><polygon class="cls-3" points="42 39 35.5 45.5 14 45.5 14 10.5 42 10.5 42 39"/><polygon class="cls-4" points="41 39.79 36.36 44.5 15 44.5 15 11.5 41 11.5 41 39.79"/><rect class="cls-5" x="17" y="14" width="22" height="4"/><rect class="cls-5" x="16.96" y="20" width="14" height="2"/><rect class="cls-6" x="31.96" y="20" width="7" height="7"/><rect class="cls-5" x="16.96" y="24" width="14" height="2"/><rect class="cls-5" x="16.96" y="28" width="22" height="2"/><rect class="cls-5" x="16.96" y="32" width="22" height="2"/><rect class="cls-5" x="28.96" y="36" width="10" height="2"/><rect class="cls-7" x="16.96" y="36" width="11" height="6"/><rect class="cls-5" x="28.96" y="40" width="10" height="2"/><polygon class="cls-8" points="35.5 45.5 35.5 39 42 39 35.5 45.5"/></g></svg>